<mxfile host="Electron" modified="2023-07-12T11:45:43.312Z" agent="Mozilla/5.0 (Windows NT 10.0; Win64; x64) AppleWebKit/537.36 (KHTML, like Gecko) draw.io/21.5.0 Chrome/112.0.5615.204 Electron/24.5.1 Safari/537.36" etag="SnB4LoRe5Ym9KtZg67ts" version="21.5.0" type="device">
  <diagram id="HrhcTRGtUSzoIisTcbxT" name="第 1 页">
    <mxGraphModel dx="2074" dy="1205" grid="1" gridSize="10" guides="1" tooltips="1" connect="1" arrows="1" fold="1" page="1" pageScale="1" pageWidth="1169" pageHeight="827" math="0" shadow="0">
      <root>
        <mxCell id="0" />
        <mxCell id="1" parent="0" />
        <mxCell id="YH-oL-4rhkpx-V67JSJZ-54" value="&lt;p style=&quot;line-height: 120%;&quot;&gt;&lt;br&gt;&lt;/p&gt;" style="rounded=1;whiteSpace=wrap;html=1;" vertex="1" parent="1">
          <mxGeometry x="594" y="210" width="100" height="110" as="geometry" />
        </mxCell>
        <mxCell id="YH-oL-4rhkpx-V67JSJZ-7" value="" style="endArrow=classic;html=1;rounded=0;edgeStyle=elbowEdgeStyle;elbow=vertical;strokeWidth=1;labelBackgroundColor=none;fontColor=default;" edge="1" parent="1">
          <mxGeometry width="50" height="50" relative="1" as="geometry">
            <mxPoint x="390" y="460" as="sourcePoint" />
            <mxPoint x="486" y="482.01" as="targetPoint" />
            <Array as="points">
              <mxPoint x="440" y="482" />
            </Array>
          </mxGeometry>
        </mxCell>
        <mxCell id="YH-oL-4rhkpx-V67JSJZ-11" value="&lt;font style=&quot;font-size: 8px;&quot;&gt;pc_f_i+32&#39;d4[31:0]&lt;/font&gt;" style="text;strokeColor=none;align=center;fillColor=none;html=1;verticalAlign=middle;whiteSpace=wrap;rounded=0;" vertex="1" parent="1">
          <mxGeometry x="410" y="448" width="64.38" height="10" as="geometry" />
        </mxCell>
        <mxCell id="YH-oL-4rhkpx-V67JSJZ-12" value="&lt;font style=&quot;font-size: 8px;&quot;&gt;pc_f_i+32&#39;d8[31:0]&lt;/font&gt;" style="text;strokeColor=none;align=center;fillColor=none;html=1;verticalAlign=middle;whiteSpace=wrap;rounded=0;" vertex="1" parent="1">
          <mxGeometry x="410" y="470" width="64.38" height="10" as="geometry" />
        </mxCell>
        <mxCell id="YH-oL-4rhkpx-V67JSJZ-14" value="D" style="rounded=0;whiteSpace=wrap;html=1;strokeWidth=1;labelBackgroundColor=none;" vertex="1" parent="1">
          <mxGeometry x="520" y="456.5" width="16" height="31" as="geometry" />
        </mxCell>
        <mxCell id="YH-oL-4rhkpx-V67JSJZ-16" value="&lt;font style=&quot;font-size: 8px;&quot;&gt;branch_source_i+32&#39;d4[31:0]&lt;/font&gt;" style="text;strokeColor=none;align=center;fillColor=none;html=1;verticalAlign=middle;whiteSpace=wrap;rounded=0;" vertex="1" parent="1">
          <mxGeometry x="402" y="510" width="110" height="10" as="geometry" />
        </mxCell>
        <mxCell id="YH-oL-4rhkpx-V67JSJZ-17" value="D" style="rounded=0;whiteSpace=wrap;html=1;strokeWidth=1;labelBackgroundColor=none;" vertex="1" parent="1">
          <mxGeometry x="520" y="507" width="16" height="31" as="geometry" />
        </mxCell>
        <mxCell id="YH-oL-4rhkpx-V67JSJZ-19" value="" style="endArrow=classic;html=1;rounded=0;edgeStyle=elbowEdgeStyle;elbow=vertical;strokeWidth=1;labelBackgroundColor=none;fontColor=default;" edge="1" parent="1">
          <mxGeometry width="50" height="50" relative="1" as="geometry">
            <mxPoint x="370" y="350" as="sourcePoint" />
            <mxPoint x="520" y="522.01" as="targetPoint" />
            <Array as="points">
              <mxPoint x="440" y="522" />
            </Array>
          </mxGeometry>
        </mxCell>
        <mxCell id="YH-oL-4rhkpx-V67JSJZ-20" value="" style="shape=trapezoid;perimeter=trapezoidPerimeter;whiteSpace=wrap;html=1;fixedSize=1;rotation=90;size=6.75;strokeWidth=1;labelBackgroundColor=none;" vertex="1" parent="1">
          <mxGeometry x="533" y="492" width="65" height="10" as="geometry" />
        </mxCell>
        <mxCell id="YH-oL-4rhkpx-V67JSJZ-21" style="edgeStyle=elbowEdgeStyle;rounded=0;orthogonalLoop=1;jettySize=auto;html=1;elbow=vertical;exitX=0.585;exitY=0.005;exitDx=0;exitDy=0;exitPerimeter=0;strokeWidth=1;labelBackgroundColor=none;fontColor=default;" edge="1" parent="1">
          <mxGeometry relative="1" as="geometry">
            <mxPoint x="536" y="471.7300000000002" as="sourcePoint" />
            <mxPoint x="560" y="472" as="targetPoint" />
          </mxGeometry>
        </mxCell>
        <mxCell id="YH-oL-4rhkpx-V67JSJZ-22" style="edgeStyle=elbowEdgeStyle;rounded=0;orthogonalLoop=1;jettySize=auto;html=1;elbow=vertical;exitX=0.585;exitY=0.005;exitDx=0;exitDy=0;exitPerimeter=0;strokeWidth=1;labelBackgroundColor=none;fontColor=default;" edge="1" parent="1">
          <mxGeometry relative="1" as="geometry">
            <mxPoint x="536" y="521.3600000000001" as="sourcePoint" />
            <mxPoint x="560" y="521.63" as="targetPoint" />
          </mxGeometry>
        </mxCell>
        <mxCell id="YH-oL-4rhkpx-V67JSJZ-24" value="RAS" style="rounded=1;whiteSpace=wrap;html=1;" vertex="1" parent="1">
          <mxGeometry x="594" y="462" width="30" height="70" as="geometry" />
        </mxCell>
        <mxCell id="YH-oL-4rhkpx-V67JSJZ-25" value="" style="endArrow=classic;html=1;rounded=0;entryX=0.786;entryY=0.986;entryDx=0;entryDy=0;entryPerimeter=0;" edge="1" parent="1" target="YH-oL-4rhkpx-V67JSJZ-48">
          <mxGeometry width="50" height="50" relative="1" as="geometry">
            <mxPoint x="624" y="478.8" as="sourcePoint" />
            <mxPoint x="749.5600000000001" y="479.125" as="targetPoint" />
          </mxGeometry>
        </mxCell>
        <mxCell id="YH-oL-4rhkpx-V67JSJZ-26" value="&lt;font style=&quot;font-size: 8px;&quot;&gt;ras_pc_pred_w[31:0]&lt;/font&gt;" style="text;strokeColor=none;align=center;fillColor=none;html=1;verticalAlign=middle;whiteSpace=wrap;rounded=0;" vertex="1" parent="1">
          <mxGeometry x="624" y="467" width="80" height="10" as="geometry" />
        </mxCell>
        <mxCell id="YH-oL-4rhkpx-V67JSJZ-27" style="edgeStyle=elbowEdgeStyle;rounded=0;orthogonalLoop=1;jettySize=auto;html=1;elbow=vertical;exitX=0.585;exitY=0.005;exitDx=0;exitDy=0;exitPerimeter=0;strokeWidth=1;labelBackgroundColor=none;fontColor=default;" edge="1" parent="1">
          <mxGeometry relative="1" as="geometry">
            <mxPoint x="570" y="495.00000000000017" as="sourcePoint" />
            <mxPoint x="594" y="495.27" as="targetPoint" />
          </mxGeometry>
        </mxCell>
        <mxCell id="YH-oL-4rhkpx-V67JSJZ-29" style="edgeStyle=elbowEdgeStyle;rounded=0;orthogonalLoop=1;jettySize=auto;html=1;elbow=vertical;exitX=0.585;exitY=0.005;exitDx=0;exitDy=0;exitPerimeter=0;strokeWidth=1;labelBackgroundColor=none;fontColor=default;" edge="1" parent="1">
          <mxGeometry relative="1" as="geometry">
            <mxPoint x="496.00000000000006" y="471.8600000000002" as="sourcePoint" />
            <mxPoint x="520" y="472.13" as="targetPoint" />
          </mxGeometry>
        </mxCell>
        <mxCell id="YH-oL-4rhkpx-V67JSJZ-32" style="edgeStyle=orthogonalEdgeStyle;rounded=0;orthogonalLoop=1;jettySize=auto;html=1;strokeWidth=1;labelBackgroundColor=none;fontColor=default;" edge="1" parent="1">
          <mxGeometry relative="1" as="geometry">
            <mxPoint x="390" y="440" as="sourcePoint" />
            <mxPoint x="594" y="410" as="targetPoint" />
            <Array as="points">
              <mxPoint x="390" y="410" />
              <mxPoint x="594" y="410" />
            </Array>
          </mxGeometry>
        </mxCell>
        <mxCell id="YH-oL-4rhkpx-V67JSJZ-33" value="&lt;font style=&quot;font-size: 8px;&quot;&gt;pc_f_i[31:0]&lt;/font&gt;" style="text;strokeColor=none;align=center;fillColor=none;html=1;verticalAlign=middle;whiteSpace=wrap;rounded=0;" vertex="1" parent="1">
          <mxGeometry x="538.61" y="398" width="41.77" height="10" as="geometry" />
        </mxCell>
        <mxCell id="YH-oL-4rhkpx-V67JSJZ-34" style="edgeStyle=orthogonalEdgeStyle;rounded=0;orthogonalLoop=1;jettySize=auto;html=1;entryX=0.181;entryY=1.061;entryDx=0;entryDy=0;entryPerimeter=0;strokeWidth=1;labelBackgroundColor=none;fontColor=default;" edge="1" parent="1">
          <mxGeometry relative="1" as="geometry">
            <mxPoint x="290" y="369" as="sourcePoint" />
            <mxPoint x="594" y="369.48600000000016" as="targetPoint" />
          </mxGeometry>
        </mxCell>
        <mxCell id="YH-oL-4rhkpx-V67JSJZ-35" value="&lt;font style=&quot;font-size: 8px;&quot;&gt;branch_request_i&lt;/font&gt;" style="text;strokeColor=none;align=center;fillColor=none;html=1;verticalAlign=middle;whiteSpace=wrap;rounded=0;" vertex="1" parent="1">
          <mxGeometry x="518" y="357.49" width="63.77" height="10" as="geometry" />
        </mxCell>
        <mxCell id="YH-oL-4rhkpx-V67JSJZ-36" style="edgeStyle=orthogonalEdgeStyle;rounded=0;orthogonalLoop=1;jettySize=auto;html=1;entryX=0.181;entryY=1.061;entryDx=0;entryDy=0;entryPerimeter=0;strokeWidth=1;labelBackgroundColor=none;fontColor=default;" edge="1" parent="1">
          <mxGeometry relative="1" as="geometry">
            <mxPoint x="290" y="390" as="sourcePoint" />
            <mxPoint x="594" y="389.60600000000017" as="targetPoint" />
          </mxGeometry>
        </mxCell>
        <mxCell id="YH-oL-4rhkpx-V67JSJZ-37" value="&lt;font style=&quot;font-size: 8px;&quot;&gt;branch_pc_i[31:0]&lt;/font&gt;" style="text;strokeColor=none;align=center;fillColor=none;html=1;verticalAlign=middle;whiteSpace=wrap;rounded=0;" vertex="1" parent="1">
          <mxGeometry x="517" y="377.61" width="63.77" height="10" as="geometry" />
        </mxCell>
        <mxCell id="YH-oL-4rhkpx-V67JSJZ-38" value="" style="endArrow=classic;html=1;rounded=0;" edge="1" parent="1">
          <mxGeometry width="50" height="50" relative="1" as="geometry">
            <mxPoint x="624" y="391.68" as="sourcePoint" />
            <mxPoint x="714" y="391.88" as="targetPoint" />
          </mxGeometry>
        </mxCell>
        <mxCell id="YH-oL-4rhkpx-V67JSJZ-39" value="&lt;font style=&quot;font-size: 8px;&quot;&gt;btb_next_pc_r[31:0]&lt;/font&gt;" style="text;strokeColor=none;align=center;fillColor=none;html=1;verticalAlign=middle;whiteSpace=wrap;rounded=0;" vertex="1" parent="1">
          <mxGeometry x="626" y="379.88" width="80" height="10" as="geometry" />
        </mxCell>
        <mxCell id="YH-oL-4rhkpx-V67JSJZ-40" value="" style="shape=trapezoid;perimeter=trapezoidPerimeter;whiteSpace=wrap;html=1;fixedSize=1;rotation=90;size=6.75;strokeWidth=1;labelBackgroundColor=none;" vertex="1" parent="1">
          <mxGeometry x="700" y="395" width="39.38" height="10" as="geometry" />
        </mxCell>
        <mxCell id="YH-oL-4rhkpx-V67JSJZ-42" value="" style="endArrow=classic;html=1;rounded=0;" edge="1" parent="1">
          <mxGeometry width="50" height="50" relative="1" as="geometry">
            <mxPoint x="290" y="440" as="sourcePoint" />
            <mxPoint x="714" y="410" as="targetPoint" />
            <Array as="points">
              <mxPoint x="630" y="440" />
              <mxPoint x="630" y="410" />
            </Array>
          </mxGeometry>
        </mxCell>
        <mxCell id="YH-oL-4rhkpx-V67JSJZ-43" value="&lt;font style=&quot;font-size: 8px;&quot;&gt;pc_f_i+32&#39;d8[31:0]&lt;/font&gt;" style="text;strokeColor=none;align=center;fillColor=none;html=1;verticalAlign=middle;whiteSpace=wrap;rounded=0;" vertex="1" parent="1">
          <mxGeometry x="634" y="398" width="68" height="10" as="geometry" />
        </mxCell>
        <mxCell id="YH-oL-4rhkpx-V67JSJZ-44" value="" style="endArrow=classic;html=1;rounded=0;entryX=0.191;entryY=1.053;entryDx=0;entryDy=0;entryPerimeter=0;" edge="1" parent="1">
          <mxGeometry width="50" height="50" relative="1" as="geometry">
            <mxPoint x="390" y="440" as="sourcePoint" />
            <mxPoint x="485.78000000000003" y="459.83158" as="targetPoint" />
            <Array as="points">
              <mxPoint x="390" y="460" />
            </Array>
          </mxGeometry>
        </mxCell>
        <mxCell id="YH-oL-4rhkpx-V67JSJZ-45" value="" style="shape=trapezoid;perimeter=trapezoidPerimeter;whiteSpace=wrap;html=1;fixedSize=1;rotation=90;size=6.75;strokeWidth=1;labelBackgroundColor=none;" vertex="1" parent="1">
          <mxGeometry x="471.62" y="467" width="39.38" height="10" as="geometry" />
        </mxCell>
        <mxCell id="YH-oL-4rhkpx-V67JSJZ-48" value="" style="shape=trapezoid;perimeter=trapezoidPerimeter;whiteSpace=wrap;html=1;fixedSize=1;rotation=90;size=6.75;strokeWidth=1;labelBackgroundColor=none;" vertex="1" parent="1">
          <mxGeometry x="688" y="438" width="125" height="10" as="geometry" />
        </mxCell>
        <mxCell id="YH-oL-4rhkpx-V67JSJZ-49" style="edgeStyle=elbowEdgeStyle;rounded=0;orthogonalLoop=1;jettySize=auto;html=1;elbow=vertical;exitX=0.585;exitY=0.005;exitDx=0;exitDy=0;exitPerimeter=0;strokeWidth=1;labelBackgroundColor=none;fontColor=default;entryX=0.156;entryY=1.006;entryDx=0;entryDy=0;entryPerimeter=0;" edge="1" parent="1" target="YH-oL-4rhkpx-V67JSJZ-48">
          <mxGeometry relative="1" as="geometry">
            <mxPoint x="725" y="399.8600000000002" as="sourcePoint" />
            <mxPoint x="749" y="400.13" as="targetPoint" />
          </mxGeometry>
        </mxCell>
        <mxCell id="YH-oL-4rhkpx-V67JSJZ-50" value="" style="endArrow=classic;html=1;rounded=0;entryX=0.933;entryY=0.994;entryDx=0;entryDy=0;entryPerimeter=0;" edge="1" parent="1">
          <mxGeometry width="50" height="50" relative="1" as="geometry">
            <mxPoint x="756" y="435" as="sourcePoint" />
            <mxPoint x="882" y="435.2" as="targetPoint" />
          </mxGeometry>
        </mxCell>
        <mxCell id="YH-oL-4rhkpx-V67JSJZ-51" value="&lt;font style=&quot;font-size: 8px;&quot;&gt;next_pc_f_o[31:0]&lt;/font&gt;" style="text;strokeColor=none;align=center;fillColor=none;html=1;verticalAlign=middle;whiteSpace=wrap;rounded=0;" vertex="1" parent="1">
          <mxGeometry x="759" y="423" width="61" height="7" as="geometry" />
        </mxCell>
        <mxCell id="YH-oL-4rhkpx-V67JSJZ-52" value="GHR" style="rounded=1;whiteSpace=wrap;html=1;" vertex="1" parent="1">
          <mxGeometry x="607" y="240" width="30" height="70" as="geometry" />
        </mxCell>
        <mxCell id="YH-oL-4rhkpx-V67JSJZ-53" value="BHT" style="rounded=1;whiteSpace=wrap;html=1;" vertex="1" parent="1">
          <mxGeometry x="652" y="240" width="30" height="70" as="geometry" />
        </mxCell>
        <mxCell id="YH-oL-4rhkpx-V67JSJZ-55" value="Gshare" style="text;strokeColor=none;align=center;fillColor=none;html=1;verticalAlign=middle;whiteSpace=wrap;rounded=0;" vertex="1" parent="1">
          <mxGeometry x="614" y="222" width="60" height="10" as="geometry" />
        </mxCell>
        <mxCell id="YH-oL-4rhkpx-V67JSJZ-56" style="edgeStyle=orthogonalEdgeStyle;rounded=0;orthogonalLoop=1;jettySize=auto;html=1;strokeWidth=1;labelBackgroundColor=none;fontColor=default;entryX=-0.006;entryY=0.632;entryDx=0;entryDy=0;entryPerimeter=0;" edge="1" parent="1" target="YH-oL-4rhkpx-V67JSJZ-54">
          <mxGeometry relative="1" as="geometry">
            <mxPoint x="390" y="410.88" as="sourcePoint" />
            <mxPoint x="594" y="290" as="targetPoint" />
            <Array as="points">
              <mxPoint x="390" y="280" />
              <mxPoint x="593" y="280" />
            </Array>
          </mxGeometry>
        </mxCell>
        <mxCell id="YH-oL-4rhkpx-V67JSJZ-57" value="&lt;font style=&quot;font-size: 8px;&quot;&gt;pc_f_i[10:3]&lt;/font&gt;" style="text;strokeColor=none;align=center;fillColor=none;html=1;verticalAlign=middle;whiteSpace=wrap;rounded=0;" vertex="1" parent="1">
          <mxGeometry x="537.77" y="267" width="43" height="10" as="geometry" />
        </mxCell>
        <mxCell id="YH-oL-4rhkpx-V67JSJZ-58" value="BTB" style="rounded=1;whiteSpace=wrap;html=1;" vertex="1" parent="1">
          <mxGeometry x="594" y="330" width="30" height="100" as="geometry" />
        </mxCell>
        <mxCell id="YH-oL-4rhkpx-V67JSJZ-59" style="edgeStyle=orthogonalEdgeStyle;rounded=0;orthogonalLoop=1;jettySize=auto;html=1;entryX=0.181;entryY=1.061;entryDx=0;entryDy=0;entryPerimeter=0;strokeWidth=1;labelBackgroundColor=none;fontColor=default;" edge="1" parent="1">
          <mxGeometry relative="1" as="geometry">
            <mxPoint x="290" y="350" as="sourcePoint" />
            <mxPoint x="593" y="349.99600000000015" as="targetPoint" />
          </mxGeometry>
        </mxCell>
        <mxCell id="YH-oL-4rhkpx-V67JSJZ-60" value="&lt;font style=&quot;font-size: 8px;&quot;&gt;branch_source_i[31:0]&lt;/font&gt;" style="text;strokeColor=none;align=center;fillColor=none;html=1;verticalAlign=middle;whiteSpace=wrap;rounded=0;" vertex="1" parent="1">
          <mxGeometry x="500" y="338" width="82.77" height="10" as="geometry" />
        </mxCell>
        <mxCell id="YH-oL-4rhkpx-V67JSJZ-62" value="" style="endArrow=classic;html=1;rounded=0;entryX=0.002;entryY=0.819;entryDx=0;entryDy=0;entryPerimeter=0;" edge="1" parent="1" target="YH-oL-4rhkpx-V67JSJZ-54">
          <mxGeometry width="50" height="50" relative="1" as="geometry">
            <mxPoint x="410" y="350" as="sourcePoint" />
            <mxPoint x="590" y="270" as="targetPoint" />
            <Array as="points">
              <mxPoint x="410" y="300" />
            </Array>
          </mxGeometry>
        </mxCell>
        <mxCell id="YH-oL-4rhkpx-V67JSJZ-63" value="&lt;font style=&quot;font-size: 8px;&quot;&gt;branch_source_i[10:3]&lt;/font&gt;" style="text;strokeColor=none;align=center;fillColor=none;html=1;verticalAlign=middle;whiteSpace=wrap;rounded=0;" vertex="1" parent="1">
          <mxGeometry x="500.27" y="288" width="82.77" height="10" as="geometry" />
        </mxCell>
        <mxCell id="YH-oL-4rhkpx-V67JSJZ-64" style="edgeStyle=orthogonalEdgeStyle;rounded=0;orthogonalLoop=1;jettySize=auto;html=1;entryX=0.181;entryY=1.061;entryDx=0;entryDy=0;entryPerimeter=0;strokeWidth=1;labelBackgroundColor=none;fontColor=default;" edge="1" parent="1">
          <mxGeometry relative="1" as="geometry">
            <mxPoint x="290" y="240" as="sourcePoint" />
            <mxPoint x="592.77" y="239.99600000000015" as="targetPoint" />
          </mxGeometry>
        </mxCell>
        <mxCell id="YH-oL-4rhkpx-V67JSJZ-65" style="edgeStyle=orthogonalEdgeStyle;rounded=0;orthogonalLoop=1;jettySize=auto;html=1;entryX=0.181;entryY=1.061;entryDx=0;entryDy=0;entryPerimeter=0;strokeWidth=1;labelBackgroundColor=none;fontColor=default;" edge="1" parent="1">
          <mxGeometry relative="1" as="geometry">
            <mxPoint x="290" y="260" as="sourcePoint" />
            <mxPoint x="592.77" y="260.11600000000016" as="targetPoint" />
          </mxGeometry>
        </mxCell>
        <mxCell id="YH-oL-4rhkpx-V67JSJZ-66" value="&lt;font style=&quot;font-size: 8px;&quot;&gt;branch_is_taken_i&lt;/font&gt;" style="text;strokeColor=none;align=center;fillColor=none;html=1;verticalAlign=middle;whiteSpace=wrap;rounded=0;" vertex="1" parent="1">
          <mxGeometry x="515.77" y="248.12" width="63.77" height="10" as="geometry" />
        </mxCell>
        <mxCell id="YH-oL-4rhkpx-V67JSJZ-67" value="&lt;font style=&quot;font-size: 8px;&quot;&gt;branch_is_not_taken_i&lt;/font&gt;" style="text;strokeColor=none;align=center;fillColor=none;html=1;verticalAlign=middle;whiteSpace=wrap;rounded=0;" vertex="1" parent="1">
          <mxGeometry x="500" y="227" width="79.54" height="10" as="geometry" />
        </mxCell>
        <mxCell id="YH-oL-4rhkpx-V67JSJZ-68" value="&lt;font style=&quot;font-size: 8px;&quot;&gt;branch_source_i[31:0]&lt;/font&gt;" style="text;strokeColor=none;align=center;fillColor=none;html=1;verticalAlign=middle;whiteSpace=wrap;rounded=0;" vertex="1" parent="1">
          <mxGeometry x="287" y="338" width="82.77" height="10" as="geometry" />
        </mxCell>
        <mxCell id="YH-oL-4rhkpx-V67JSJZ-69" value="&lt;font style=&quot;font-size: 8px;&quot;&gt;pc_f_i[31:0]&lt;/font&gt;" style="text;strokeColor=none;align=center;fillColor=none;html=1;verticalAlign=middle;whiteSpace=wrap;rounded=0;" vertex="1" parent="1">
          <mxGeometry x="289" y="427" width="41.77" height="10" as="geometry" />
        </mxCell>
        <mxCell id="YH-oL-4rhkpx-V67JSJZ-70" value="" style="endArrow=classic;html=1;rounded=0;exitX=1;exitY=0.454;exitDx=0;exitDy=0;exitPerimeter=0;entryX=0;entryY=0.5;entryDx=0;entryDy=0;" edge="1" parent="1" source="YH-oL-4rhkpx-V67JSJZ-54" target="YH-oL-4rhkpx-V67JSJZ-40">
          <mxGeometry width="50" height="50" relative="1" as="geometry">
            <mxPoint x="694.69" y="267" as="sourcePoint" />
            <mxPoint x="744.69" y="217" as="targetPoint" />
            <Array as="points">
              <mxPoint x="720" y="260" />
            </Array>
          </mxGeometry>
        </mxCell>
        <mxCell id="YH-oL-4rhkpx-V67JSJZ-71" value="" style="endArrow=classic;html=1;rounded=0;entryX=0.979;entryY=0.559;entryDx=0;entryDy=0;entryPerimeter=0;exitX=1.004;exitY=0.827;exitDx=0;exitDy=0;exitPerimeter=0;" edge="1" parent="1" source="YH-oL-4rhkpx-V67JSJZ-24" target="YH-oL-4rhkpx-V67JSJZ-48">
          <mxGeometry width="50" height="50" relative="1" as="geometry">
            <mxPoint x="622" y="518.8" as="sourcePoint" />
            <mxPoint x="747.5600000000001" y="519.125" as="targetPoint" />
            <Array as="points">
              <mxPoint x="750" y="520" />
            </Array>
          </mxGeometry>
        </mxCell>
        <mxCell id="YH-oL-4rhkpx-V67JSJZ-72" value="&lt;font style=&quot;font-size: 8px;&quot;&gt;ras_ret_pred_w[31:0]&lt;/font&gt;" style="text;strokeColor=none;align=center;fillColor=none;html=1;verticalAlign=middle;whiteSpace=wrap;rounded=0;" vertex="1" parent="1">
          <mxGeometry x="624" y="508" width="80" height="10" as="geometry" />
        </mxCell>
        <mxCell id="YH-oL-4rhkpx-V67JSJZ-73" value="&lt;font style=&quot;font-size: 8px;&quot;&gt;branch_request_i&lt;/font&gt;" style="text;strokeColor=none;align=center;fillColor=none;html=1;verticalAlign=middle;whiteSpace=wrap;rounded=0;" vertex="1" parent="1">
          <mxGeometry x="288" y="357.49" width="63.77" height="10" as="geometry" />
        </mxCell>
        <mxCell id="YH-oL-4rhkpx-V67JSJZ-74" value="&lt;font style=&quot;font-size: 8px;&quot;&gt;branch_pc_i[31:0]&lt;/font&gt;" style="text;strokeColor=none;align=center;fillColor=none;html=1;verticalAlign=middle;whiteSpace=wrap;rounded=0;" vertex="1" parent="1">
          <mxGeometry x="289" y="377" width="63.77" height="10" as="geometry" />
        </mxCell>
        <mxCell id="YH-oL-4rhkpx-V67JSJZ-75" value="&lt;font style=&quot;font-size: 8px;&quot;&gt;branch_is_not_taken_i&lt;/font&gt;" style="text;strokeColor=none;align=center;fillColor=none;html=1;verticalAlign=middle;whiteSpace=wrap;rounded=0;" vertex="1" parent="1">
          <mxGeometry x="289.23" y="227" width="79.54" height="10" as="geometry" />
        </mxCell>
        <mxCell id="YH-oL-4rhkpx-V67JSJZ-76" value="&lt;font style=&quot;font-size: 8px;&quot;&gt;branch_is_taken_i&lt;/font&gt;" style="text;strokeColor=none;align=center;fillColor=none;html=1;verticalAlign=middle;whiteSpace=wrap;rounded=0;" vertex="1" parent="1">
          <mxGeometry x="289.23" y="248.12" width="63.77" height="10" as="geometry" />
        </mxCell>
      </root>
    </mxGraphModel>
  </diagram>
</mxfile>
